<?xml version="1.0" encoding="utf-8"?>
<svg version="1.0" xmlns="http://www.w3.org/2000/svg" width="294.000000pt" height="318.000000pt" viewBox="0 0 294.000000 318.000000" preserveAspectRatio="xMidYMid meet" xmlns:bx="https://boxy-svg.com"><defs><bx:export><bx:file format="svg" units="pt"/></bx:export></defs><g transform="translate(0.000000,318.000000) scale(0.100000,-0.100000)" fill="#000000" stroke="none"><path d="M1258 3020 c-500 -33 -908 -170 -987 -332 -18 -38 -21 -62 -21 -173 0 -110 3 -135 21 -172 70 -144 386 -267 824 -320 190 -23 597 -22 785 1 458 57 788 193 829 342 14 50 14 248 0 298 -41 148 -383 288 -830 340 -161 19 -460 27 -621 16z"/><path d="M250 1915 c0 -167 6 -189 71 -253 40 -40 204 -132 234 -132 7 0 15 16 18 35 11 66 57 143 123 205 36 33 70 60 77 60 7 0 18 5 25 12 8 8 -19 19 -116 43 -143 37 -277 88 -365 140 -32 19 -60 35 -63 35 -2 0 -4 -65 -4 -145z"/><path d="M2650 2025 c-79 -49 -236 -109 -372 -142 -65 -15 -118 -31 -118 -35 0 -4 16 -14 34 -23 79 -38 196 -196 196 -265 0 -11 7 -23 15 -26 24 -10 179 70 231 118 74 68 84 98 84 266 0 78 -3 142 -7 141 -5 0 -33 -16 -63 -34z"/><path d="M1337 1790 c4 -4 38 -33 76 -64 l67 -57 68 57 c37 31 70 60 75 63 4 4 -61 7 -143 7 -83 1 -147 -2 -143 -6z"/><path d="M 955 1754 C 900 1742.5 850 1722.25 810.125 1696.375 C 770.25 1670.5 740.5 1639 726 1605 C 700 1545 678.866 1455.485 689.366 1371.985 C 699.866 1288.485 742 1211 762 1182 C 795.5 1132.5 830 1087.25 873 1038.25 C 916 989.25 967.5 936.5 1035 872 C 1062.5 845 1105.5 803 1152.75 757 C 1200 711 1251.5 661 1296 618 C 1353 562 1395 522.5 1424.75 497 C 1454.5 471.5 1472 460 1480 460 C 1488 460 1502.75 468.75 1525.5 487.25 C 1548.25 505.75 1579 534 1619 573 C 1719.5 670.5 1793.25 741.75 1845.375 791.375 C 1897.5 841 1928 869 1942 880 C 1961 895 2010.5 949 2061.125 1008 C 2111.75 1067 2163.5 1131 2187 1166 C 2217.5 1211.5 2253.048 1286.688 2266.173 1356.938 C 2279.298 1427.188 2270 1492.5 2270 1505 C 2270 1521 2261 1549.75 2248.625 1578.125 C 2236.25 1606.5 2220.5 1634.5 2207 1649 C 2173 1685.5 2134 1712 2087.75 1729.375 C 2041.5 1746.75 1988 1755 1925 1755 C 1882 1755 1858.75 1754.5 1837.875 1749.375 C 1817 1744.25 1798.5 1734.5 1765 1716 C 1729 1696.5 1698.75 1677.5 1666 1653.125 C 1633.25 1628.75 1598 1599 1552 1558 C 1537.5 1544.5 1522.25 1532.5 1509.25 1523.875 C 1496.25 1515.25 1485.5 1510 1480 1510 C 1475 1510 1460.75 1518.5 1442 1532.125 C 1423.25 1545.75 1400 1564.5 1377 1585 C 1331.5 1626 1288 1660.25 1247.125 1687.125 C 1206.25 1714 1168 1733.5 1133 1745 C 1113 1752 1080.25 1756.5 1046.625 1758.125 C 1013 1759.75 978.5 1758.5 955 1754 Z" style="fill: rgb(49, 174, 25); paint-order: stroke; stroke: rgb(202, 221, 143);"/><path d="M250 1303 c0 -171 10 -204 78 -265 51 -46 175 -109 290 -148 94 -31 280 -75 288 -68 2 3 -37 45 -87 94 -115 112 -207 244 -238 341 -13 38 -18 43 -75 63 -70 26 -188 83 -228 112 l-28 19 0 -148z"/><path d="M2650 1408 c-36 -21 -107 -55 -158 -75 -83 -33 -94 -40 -108 -72 -16 -38 -42 -91 -78 -155 -11 -21 -74 -94 -139 -162 -68 -71 -112 -124 -103 -124 32 0 203 42 288 70 198 66 334 161 358 248 6 23 9 99 8 174 l-3 134 -65 -38z"/><path d="M250 684 c0 -129 3 -153 21 -191 70 -144 394 -268 835 -319 187 -21 571 -21 758 0 458 53 799 191 844 344 7 22 12 99 12 175 l0 135 -102 -53 c-177 -92 -380 -147 -672 -185 -112 -14 -166 -25 -180 -37 -12 -10 -73 -68 -137 -130 -97 -95 -121 -113 -147 -113 -34 0 -28 -5 -188 152 l-109 108 -125 15 c-343 41 -598 116 -777 226 l-33 21 0 -148z"/></g></svg>