<svg id="ebaNTJxj2CV1" xmlns="http://www.w3.org/2000/svg" xmlns:xlink="http://www.w3.org/1999/xlink" viewBox="0 0 605 381" shape-rendering="geometricPrecision" text-rendering="geometricPrecision"><g transform="translate(0 0.000001)"><g transform="translate(-8.999999-50)"><path d="M387.067923,237.999963c0,60.16815-26.229363,115.598907-70.846713,149.216887C271.60387,353.59887,242.75754,300.16815,242.75754,240s28.84633-113.59887,73.46367-147.21685c44.61734,33.61798,70.846713,85.048663,70.846713,145.216813Z" transform="translate(-8.698788 0)" fill="#ffcd22" stroke="#ff9a22" stroke-width="10" stroke-miterlimit="6"/></g><g transform="translate(-14.999999-50)"><path d="M21.26043,240c0-101.7376,82.47462-184.21223,184.21223-184.21223c41.56946,0,79.92296,13.76911,110.74855,36.99538C271.60387,126.40113,242.75753,179.83185,242.75753,240s28.84633,113.59887,73.46367,147.21685c-30.82559,23.22626-69.1791,36.99538-110.74855,36.99538-101.7376,0-184.21223-82.47462-184.21223-184.21223h.00001Z" transform="translate(0 0.000001)" fill="#ffcd22" stroke-width="10" stroke-miterlimit="2"/><ellipse rx="59.091228" ry="70" transform="matrix(3.117449 0 0 2.631603 205.07997 239.000001)" fill="none" stroke="#ff9a22" stroke-width="4"/></g><g transform="matrix(-1 0 0-1 623.138001 427.999985)"><path d="M21.26043,240c0-101.7376,82.47462-184.21223,184.21223-184.21223c41.56946,0,75.484856,11.769072,106.310446,34.995342C267.165766,124.401092,242.75753,179.83185,242.75753,240s24.408257,111.598831,69.025597,145.216811c-30.82559,23.22626-64.741027,38.995419-106.310477,38.995419-101.7376,0-184.21223-82.47462-184.21223-184.21223h.00001Z" transform="translate(3 0.000001)" fill="#ffcd22" stroke-width="10" stroke-miterlimit="2"/><ellipse rx="59.091228" ry="70" transform="matrix(3.117449 0 0 2.631603 208.07997 239.000001)" fill="none" stroke="#ff9a22" stroke-width="4"/></g></g></svg>