<svg id="eLTO5k1lfDa1" xmlns="http://www.w3.org/2000/svg" xmlns:xlink="http://www.w3.org/1999/xlink" viewBox="0 0 605 381" shape-rendering="geometricPrecision" text-rendering="geometricPrecision"><g transform="matrix(-1 0 0-1 603.442412 379.999977)"><g transform="translate(-8.999999-50)"><path d="M389.68489,240c0,60.16815-28.84633,113.59887-73.46368,147.21685C271.60387,353.59887,242.75754,300.16815,242.75754,240s28.84633-113.59887,73.46367-147.21685C360.83855,126.40113,389.68489,179.83185,389.68489,240Z" fill="#ffcd22" stroke="#fbfbfb" stroke-width="19" stroke-miterlimit="6"/></g><g transform="translate(-8.999999-50)"><path d="M426.96977,55.78777C528.70737,55.78777,611.182,138.26239,611.182,240s-82.47462,184.21223-184.21223,184.21223c-41.56946,0-79.92296-13.76911-110.74855-36.99538C360.83856,353.59887,389.68489,300.16815,389.68489,240s-28.84633-113.59887-73.46367-147.21685c30.82559-23.22626,69.1791-36.99538,110.74855-36.99538Z" transform="translate(.000001 0)" fill="#ffcd22" fill-opacity="0.33" stroke="#ffb801" stroke-width="0" stroke-miterlimit="6"/></g><g transform="translate(-14.999999-50)"><path d="M21.26043,240c0-101.7376,82.47462-184.21223,184.21223-184.21223c41.56946,0,79.92296,13.76911,110.74855,36.99538C271.60387,126.40113,242.75753,179.83185,242.75753,240s28.84633,113.59887,73.46367,147.21685c-30.82559,23.22626-69.1791,36.99538-110.74855,36.99538-101.7376,0-184.21223-82.47462-184.21223-184.21223h.00001Z" transform="translate(0 0.000001)" fill="#ffcd22" stroke-width="10" stroke-miterlimit="2"/><ellipse rx="59.091228" ry="70" transform="matrix(3.117449 0 0 2.631603 205.07997 239.000001)" fill="none" stroke="#ff9a22" stroke-width="4"/></g></g></svg>